<?xml version="1.0" encoding="UTF-8"?>
<!DOCTYPE svg PUBLIC "-//W3C//DTD SVG 1.1//EN" "http://www.w3.org/Graphics/SVG/1.1/DTD/svg11.dtd">
<!-- Creator: CorelDRAW 2018 (64 Bit) -->
<svg xmlns="http://www.w3.org/2000/svg" xml:space="preserve" width="210mm" height="210mm" version="1.1" style="shape-rendering:geometricPrecision; text-rendering:geometricPrecision; image-rendering:optimizeQuality; fill-rule:evenodd; clip-rule:evenodd"
viewBox="0 0 21000 21000"
 xmlns:xlink="http://www.w3.org/1999/xlink">
 <defs>
  <style type="text/css">
   <![CDATA[
    .fil11 {fill:#FEFEFE}
    .fil3 {fill:#D2D3D5}
    .fil4 {fill:#BDBFC1}
    .fil1 {fill:#A9ABAE}
    .fil7 {fill:#96989A}
    .fil10 {fill:#FFF688}
    .fil8 {fill:#D7CC75}
    .fil0 {fill:#3F3F4A}
    .fil13 {fill:#292E2C}
    .fil12 {fill:#0A6E45}
    .fil17 {fill:#33020A}
    .fil16 {fill:#45010C}
    .fil9 {fill:#520310}
    .fil2 {fill:#5E0514}
    .fil20 {fill:#780216}
    .fil18 {fill:#9A9460}
    .fil15 {fill:#A6887C}
    .fil6 {fill:#AB7965}
    .fil14 {fill:#CAAA9D}
    .fil19 {fill:#D1775E}
    .fil5 {fill:#D6A591}
   ]]>
  </style>
 </defs>
 <g id="Camada_x0020_1">
  <metadata id="CorelCorpID_0Corel-Layer"/>
  <ellipse class="fil0" cx="10450.95" cy="9559.5" rx="1830.78" ry="858.92"/>
  <rect class="fil1" x="6766.06" y="3225.33" width="7020.46" height="3995.18" rx="1299.1" ry="1840.53"/>
  <path class="fil0" d="M8333.88 14457.24c0,0 -380.62,3830.7 -358.58,4866.54 9.04,425.09 1113.03,349.75 1622.7,245.38 423.77,-86.76 429.89,-178.98 513.13,-788.65 175.42,-1285.27 209.04,-3749.85 121.37,-4080.24 -106.37,-400.79 -1915.09,-1029.64 -1898.62,-243.03z"/>
  <path class="fil0" d="M12596.47 14457.24c0,0 380.62,3830.7 358.59,4866.54 -9.05,425.09 -1113.03,349.75 -1622.71,245.38 -423.77,-86.76 -429.89,-178.98 -513.12,-788.65 -175.42,-1285.27 -209.05,-3749.85 -121.38,-4080.24 106.37,-400.79 1915.09,-1029.64 1898.62,-243.03z"/>
  <path class="fil2" d="M8439.66 18649.63c-58.28,19.21 -993.25,725.52 -882.14,914.55 111.1,189.04 1318.06,153.32 1659.24,40.88 341.18,-112.44 -130.18,-664.29 -428.67,-818.09 -298.49,-153.8 -340.12,-140.08 -348.43,-137.34z"/>
  <path class="fil2" d="M12490.7 18649.63c58.28,19.21 993.25,725.52 882.14,914.55 -111.11,189.04 -1318.07,153.32 -1659.25,40.88 -341.17,-112.44 130.19,-664.29 428.68,-818.09 298.49,-153.8 340.11,-140.08 348.43,-137.34z"/>
  <path class="fil3" d="M9633.26 12542.43l1659.9 0c714.67,0 1299.37,494.48 1299.37,1098.68l0 1375.55c0,1560.58 -4258.64,1560.67 -4258.64,0l0 -1375.55c0,-604.29 584.7,-1098.68 1299.37,-1098.68z"/>
  <path class="fil4" d="M9633.26 12542.43l1659.9 0c714.67,0 1299.37,494.5 1299.37,1098.68l0 723.67c0,938.61 -4258.64,940.13 -4258.64,0l0 -723.67c0,-604.29 584.7,-1098.68 1299.37,-1098.68z"/>
  <path class="fil3" d="M10463.21 9275.59l0 0c1171.15,0 2129.32,810.18 2129.32,1800.45l0 2704.6c0,791.83 -4258.64,797.54 -4258.64,0l0 -2704.6c0,-990.27 958.17,-1800.45 2129.32,-1800.45z"/>
  <path class="fil5" d="M11445.98 9561.12c3599.28,-84.77 3230.19,-1465.87 4500.58,-1834.12 786.66,-228.04 970.23,1423.6 434.06,1900.89 -1059.66,943.26 -2655.32,1718.93 -4076.19,1785.63l-858.45 -1852.4z"/>
  <path class="fil5" d="M9611.2 9486.26c-3527.83,718.6 -3475.46,-710.01 -4795.94,-786.21 -817.69,-47.2 -628.97,1603.87 0,1949.82 1243.04,683.7 2971.34,1084.68 4371.4,833.4l424.54 -1997.01z"/>
  <path class="fil5" d="M15065.1 8116.26c-207.87,-217.66 -501.87,-731.52 -11.11,-888.66 365.86,-117.14 349.23,601.04 349.23,601.04 0,0 224.37,-75.04 367.14,46.19 142.77,121.23 242.48,475.89 -71.96,586.3 -217.57,76.39 -403.47,-83.6 -494.59,-189.55 -55.5,-64.59 -79.24,-93.03 -138.71,-155.32z"/>
  <path class="fil5" d="M5424.92 8994.34c70.38,-292.63 66.42,-884.64 -436.86,-773.95 -375.18,82.52 0,695.13 0,695.13 0,0 -231.69,47.84 -294.23,224.39 -62.54,176.55 29.43,533.29 356.77,470.78 226.5,-43.26 306.86,-274.98 332.41,-412.37 15.54,-83.74 21.78,-120.25 41.91,-203.98z"/>
  <path class="fil6" d="M15431.2 7792.2c73.06,-16.48 239.48,-38.8 357.34,61.28 48.99,41.62 93.19,108.29 119.57,183.4 19.82,56.43 29.79,118.12 24.53,178 -5.41,61.18 -26.64,120.55 -69.3,170.76 -35.86,42.19 -86.68,77.7 -155.58,101.9 36.87,-44.86 150.24,-65.48 169.01,-277.51 4.52,-51.52 -4.27,-105.19 -21.6,-154.61 -23.1,-65.83 -61.19,-123.71 -102.99,-159.23 -130.65,-110.94 -339.53,-41.14 -340.09,-40.94l-37.57 12.5 0.64 -39.57c0.02,-1.93 -6.38,-700.04 -334.34,-595.04 35.65,-34.37 378.97,-104.99 390.38,559.06z"/>
  <path class="fil6" d="M4945.57 8898.07c-71.45,22.46 -226.55,86.77 -278.19,232.51 -21.45,60.6 -26.17,140.45 -11.24,218.65 11.21,58.74 33.59,117.1 68.22,166.23 35.41,50.17 83.59,90.84 145.71,112.82 52.19,18.47 113.98,23.64 185.71,9.95 -54.42,-20.26 -162.8,18.87 -285.55,-155.04 -29.8,-42.27 -49.16,-93.09 -59,-144.53 -13.1,-68.53 -9.25,-137.7 9.05,-189.42 57.23,-161.56 272.9,-206.14 273.49,-206.25l38.76 -8.07 -20.43 -33.9c-0.99,-1.66 -346.18,-608.48 -9.87,-682.46 -48.09,-11.81 -380.41,99.61 -56.66,679.51z"/>
  <path class="fil5" d="M15918.51 7805.99c0,0 164.9,-627.36 209.22,-740.14 44.32,-112.78 145.54,-264.86 313.56,-82.72 168.02,182.14 45.38,607.71 -68.88,801.57 -114.27,193.86 -369.95,109.27 -418.79,81.7 -48.85,-27.56 -35.11,-60.41 -35.11,-60.41z"/>
  <path class="fil5" d="M4805.28 8833.35c0,0 -177.59,-623.88 -224.19,-735.74 -46.59,-111.85 -150.88,-261.85 -315.17,-76.34 -164.29,185.51 -33.05,608.5 85.12,800 118.17,191.51 372.08,101.75 420.36,73.2 48.28,-28.55 33.88,-61.12 33.88,-61.12z"/>
  <path class="fil5" d="M16336.74 8100.43c0,0 226.11,-255.14 496.2,-474.76 270.09,-219.61 407.21,-269.42 472.15,-227.48 64.95,41.93 181.61,321.22 -61.75,521.99 -243.35,200.78 -532.85,349.21 -687.64,331.32 -154.8,-17.9 -213.92,-140.61 -218.96,-151.07z"/>
  <path class="fil5" d="M4638.27 9178.98c0,0 -240.6,-241.52 -523.05,-445 -282.44,-203.48 -422.23,-245.21 -484.62,-199.56 -62.39,45.66 -162.55,331.28 92.1,517.51 254.65,186.23 552.31,317.53 705.8,290.63 153.49,-26.89 205.35,-152.84 209.77,-163.58z"/>
  <path class="fil5" d="M16556.77 8340.62c0,0 491.94,-61.3 642.76,-95.74 150.83,-34.44 231.05,-10.86 244.3,34.03 13.25,44.89 -86.56,250.3 -325.82,316.9 -239.26,66.6 -455.99,90.95 -541.71,-4.14 -85.72,-95.09 -22.38,-250.4 -19.53,-251.05z"/>
  <path class="fil5" d="M4396.74 9447.88c0,0 -455.53,-195.59 -590.84,-270.58 -135.31,-75 -218.93,-74.65 -244.13,-35.21 -25.21,39.44 13.6,264.5 224.92,394.97 211.33,130.46 412.76,214.08 521.53,146.55 108.76,-67.52 91.08,-234.31 88.52,-235.73z"/>
  <path class="fil5" d="M16637.53 8859.8c0,0 365.72,57.19 527.49,98.09 161.77,40.91 111.83,145.15 -86.64,277.28 -198.46,132.13 -443.03,83.17 -482.66,-90.4 -39.63,-173.56 41.81,-284.97 41.81,-284.97z"/>
  <path class="fil5" d="M4359.72 9701.56c0,0 -318.3,-3.5 -461.32,8.19 -143.01,11.69 -115.47,107.2 34.06,247.48 149.53,140.27 363.91,133.53 422.2,-8.04 58.29,-141.57 5.06,-247.63 5.06,-247.63z"/>
  <path class="fil6" d="M16141.65 7785.41c631.12,354.06 425.65,1173.66 425.09,1176.01 -4.72,-1.11 58.57,-380.14 -61.02,-678.85 -157.25,-392.79 -369.03,-488.3 -364.07,-497.16z"/>
  <path class="fil6" d="M4638.06 8800.42c-536.46,485.68 -153.69,1238.97 -152.62,1241.14 4.36,-2.14 -141.72,-357.57 -91.63,-675.41 65.85,-417.94 251.06,-558.2 244.25,-565.73z"/>
  <path class="fil7" d="M11480.72 16127.37c-648.34,52.62 -1325.29,55.01 -2035.02,0 731.62,104.12 1296.54,101.02 2035.02,0z"/>
  <path class="fil8" d="M11663.36 9559.5c961.46,-33.75 1594.93,40.45 2082.38,-137.05l0 1928.43c-374.88,120.5 -753.35,205.86 -1123.48,246.79l0 4802.43c0,791.81 -4258.63,797.54 -4258.63,0l0 -4634.49c-302.64,2.08 -612.19,-19.5 -921.91,-61.75l0 -1832.44c486.29,49.55 1029.51,-171.57 1874.94,-327.43 27.35,-13.94 55.09,-27.35 83.23,-40.28 269.5,97.56 719.45,353.26 1112.06,353.26 392.61,0 772.49,-260.73 1039.57,-353.77 38,17.82 75.3,36.6 111.84,56.3z"/>
  <path class="fil2" d="M10279.1 10041.56l-201.9 2164.36 388.29 584.56 363.74 -545.32c-40.87,-333.22 -177.98,-2203.6 -177.98,-2203.6 0,0 -365.85,0 -372.15,0z"/>
  <circle class="fil9" cx="10483.57" cy="9848.27" r="334.43"/>
  <path class="fil10" d="M9282.54 9454.52c35.6,-17.83 71.79,-34.83 108.56,-51.1 269.96,68.45 634.1,110.39 1034.79,110.39 423.82,0 806.68,-46.96 1080.51,-122.53 47.32,20.2 93.75,41.75 139.16,64.57 6.61,29.88 0.49,48.45 0.49,48.45l-837.79 1082.7 -342.68 -974.68 -388.54 945.59 -794.5 -1053.61 0 -49.78z"/>
  <path class="fil5" d="M8584.92 9227.24c-1188.71,-545.12 -1496.88,-1191.1 -1732.68,-2228.85 -235.77,-1037.77 44.16,-2258.19 453.46,-2760.65 1099.64,-1349.85 4893.12,-1349.85 5959.62,0 401.74,508.51 689.23,1722.88 453.46,2760.65 -235.79,1037.75 -543.97,1683.73 -1732.68,2228.85 -920.28,421.99 -2480.89,421.99 -3401.18,0z"/>
  <path class="fil2" d="M7250.75 8125.75c-186.38,-320.49 -230.82,-389.27 -398.51,-1127.36 -167.69,-738.08 -242.83,-2444.74 166.43,-2947.11 1099.55,-1349.8 5272.46,-1449.45 6495.8,-240.05 456.89,451.7 372.09,2448.68 204.31,3187.16 -167.77,738.48 -212.58,808.25 -399.58,1129.16l0 -2862.6c0,-667.26 -664.67,-1185.57 -1185.59,-1185.57l-3697.26 0c-652.08,0 -1185.6,533.49 -1185.6,1185.57l0 2860.8z"/>
  <path class="fil11" d="M8765.36 7222.67c-12.92,-6.88 -464.7,-175.2 -566.7,-538.47 -102,-363.26 381.97,-470.06 628.25,-484.37 246.29,-14.31 751.36,86.76 968.49,408.8 217.13,322.03 97.47,625.16 -254.65,711.47 -352.13,86.3 -772.6,-96.49 -775.39,-97.43z"/>
  <path class="fil11" d="M11953.63 7236.43c13.48,-5.73 478.33,-133.87 611.86,-488.99 133.53,-355.12 -339.24,-505.78 -583.33,-542.29 -244.1,-36.51 -756.15,19.39 -1000.74,322.81 -244.6,303.41 -152.02,618.16 191.19,736.4 343.21,118.24 778.16,-27.23 781.02,-27.93z"/>
  <circle class="fil12" transform="matrix(3.07061 1.79202 -1.79202 3.07061 9222.56 6823.83)" r="101.03"/>
  <circle class="fil13" transform="matrix(1.65864 0.967989 -0.967989 1.65864 9222.56 6823.83)" r="101.03"/>
  <circle class="fil13" transform="matrix(1.65864 0.967989 -0.967989 1.65864 9222.56 6823.83)" r="101.03"/>
  <circle class="fil11" transform="matrix(0.791538 0.461945 -0.461945 0.791538 9108.88 6592.99)" r="101.03"/>
  <path class="fil14" d="M8029.96 6613.41c558.37,295.64 877.24,775.97 1022.98,1389.7 -341.02,-463.23 -681.97,-926.47 -1022.98,-1389.7z"/>
  <path class="fil14" d="M12692.25 6673.61c-542.85,228.37 -878.57,648 -1064.58,1205.79 354.88,-401.92 709.7,-803.86 1064.58,-1205.79z"/>
  <polygon class="fil6" points="10384.72,6556.41 10399.24,7527.88 10329.27,7529 "/>
  <path class="fil6" d="M9990.23 7598.37c1.2,-0.58 420.42,-214.48 780.02,-52.31 89.87,40.52 147.77,85.43 177.41,131.32 25.58,39.61 31.36,79.98 19.43,119.36 -11.1,36.61 -37.69,70.93 -77.7,101.58 -78.71,60.19 -214.2,109.27 -388.99,135.05 -484.53,18.49 -562.9,-96.76 -563.23,-97.21 72.33,52.13 413.02,55.2 553.01,27.83 162.91,-24.03 286.99,-68.02 356.56,-121.25 28.3,-21.68 46.56,-44.1 53.25,-66.27 5.86,-19.34 2.53,-39.97 -11.11,-61.1 -22.57,-34.92 -70.42,-70.84 -147.26,-105.47 -393.17,-177.31 -755.62,15.4 -751.39,-11.53z"/>
  <path class="fil2" d="M7836.79 5672.82c-52.01,-797.51 1901.01,-938.93 1970.52,-451.49 -154.11,72.66 -1574.21,-383.48 -1970.52,451.49z"/>
  <path class="fil2" d="M12893.38 5669.23c48.98,-797.69 -1904.56,-931.7 -1972.21,-444 154.38,72.08 1572.73,-389.46 1972.21,444z"/>
  <path class="fil6" d="M12798.8 7069.06c281.25,12.38 482.15,139.43 522.68,487.66 -131.95,-239.73 -308.81,-397.47 -522.68,-487.66z"/>
  <path class="fil6" d="M7768.96 7069.06c-281.25,12.38 -482.15,139.43 -522.68,487.66 131.96,-239.73 308.81,-397.47 522.68,-487.66z"/>
  <path class="fil6" d="M11325.98 8477.05c-40.53,337.01 -433.34,601.45 -912.02,601.45 -457.68,0 -836.92,-241.77 -904.73,-557.56 232.95,45.55 512.85,72.14 813.96,72.14 387.79,0 740.35,-44.07 1002.79,-116.03z"/>
  <path class="fil11" d="M11325.98 8477.05c-182.14,476.73 -1746.01,373.5 -1816.75,43.89 232.95,45.55 512.85,72.14 813.96,72.14 387.79,0 740.35,-44.07 1002.79,-116.03z"/>
  <path class="fil6" d="M7502.35 7220.53c213.56,332.32 511.87,607.95 862.18,821.88 557.41,340.38 1246.31,524.8 1936.22,533.99 689.48,9.16 1379.73,-156.7 1940.17,-516.88 328.75,-211.25 612.87,-489.44 825.9,-838.29l59.81 36.49c-218.87,358.46 -510.55,644.09 -847.82,860.83 -572.27,367.77 -1276.24,537.2 -1978.91,527.84 -702.25,-9.33 -1403.82,-197.29 -1971.85,-544.17 -359.19,-219.35 -665.26,-502.26 -884.73,-843.8l59.03 -37.89z"/>
  <path class="fil6" d="M10106.09 9125.48c221.4,173.9 456.58,208.45 714.25,-29.28 -256.32,95.85 -493.25,100.24 -714.25,29.28z"/>
  <path class="fil15" d="M11803.68 9275.78c-1070.88,527.58 -2684.21,131.21 -2688.84,130.11 4.79,-4.32 767.35,148.18 1456.38,103.86 906,-58.27 1216.44,-240.9 1232.46,-233.97z"/>
  <path class="fil2" d="M5399.31 1733.33c287.97,1704.07 3704.94,-470 5866.38,-430.48 1218.28,22.29 2135.59,1126.15 1628.63,3095.05 -1844.95,329.51 -3740.8,399.87 -5729.01,0 -1261.6,-661.97 -1872.41,-1702.3 -1766,-2664.57z"/>
  <path class="fil16" d="M10966.06 1310.58c21.53,-1.4 42.92,-2.47 64.26,-3.54 -56.25,110.07 -96.98,234.09 -106.76,361.47 -10.43,135.57 14.25,275.23 92.73,406.05 189.22,315.37 513.19,679.62 838.21,1045.11 233.55,262.58 467.71,525.9 654.57,774.31 157.69,209.58 273.55,378.51 353.55,509.52l-59.26 10.43c-78.36,-126.38 -189.64,-287.66 -339.09,-486.33 -184.5,-245.27 -418.41,-508.3 -651.71,-770.61 -326.53,-367.2 -652.05,-733.19 -844.33,-1053.65 -85.09,-141.83 -111.9,-292.77 -100.66,-438.99 9.53,-124.15 46.58,-244.9 98.49,-353.77z"/>
  <path class="fil16" d="M5855.31 2320.17c22.09,8.06 44.74,15.51 68.13,22 433.09,1126.49 1504.73,1914.24 2629.05,2262.47 -85.76,-8.38 -171.68,-17.63 -257.78,-27.66 -1054.95,-383 -2045.13,-1181.35 -2439.4,-2256.81zm1125.55 -16.76l54.9 -11.52c236.78,934.45 2186.51,2126.34 2889.15,2380.09 -53.01,-0.08 -106.13,-0.45 -159.25,-1.09 -701.72,-287.12 -2551.56,-1440.03 -2784.8,-2367.48zm1138.85 -305.02l53.86 -16.36c657.47,1545.46 1532.27,2194.89 3087.29,2633.2 -52.54,4.47 -105.13,8.69 -157.74,12.65 -1502.71,-445.73 -2350.42,-1135.47 -2983.41,-2629.49zm1616.23 -473.23l55.18 -13.77c132.08,1602.8 1242.51,2453.57 2619.38,2938.93 99.75,34.97 5.37,26.99 -63.05,37.19 -1374,-488.74 -2479.17,-1374.03 -2611.51,-2962.35z"/>
  <path class="fil17" d="M10804.19 6385.87c2.51,-336.95 171.09,-447.58 460.72,-519.16 342.02,-84.53 1241.13,-186.44 1576.33,37.09 419.87,280 154.25,1209.91 -53.96,1495.45 -92.84,127.33 -159.92,177.55 -359.77,225.08 -174.3,41.45 -357.31,44.57 -539.23,22.54 -339.61,-41.14 -649.04,-188.35 -792.59,-377.73 -149.59,-197.36 -290.39,-567.98 -291.5,-883.27zm-898.02 102.62c-29.76,272.5 -146.44,567.65 -266.39,759.87 -115.71,185.42 -375.73,308.41 -665.82,370.18 -378.14,80.53 -949.08,60.52 -1136.14,-324.1 -54.02,-111.07 -94.57,-273.06 -119.43,-404.06 -52.89,-278.63 -85.9,-666.64 60.66,-886.95 193.74,-291.23 1356.23,-265.92 1733.42,-137.34 305.7,104.22 436.2,233.26 393.7,622.4zm-2611.85 -692.82c-10.62,98.67 -32.68,191.67 -30.92,292.78 2.53,145.34 47.61,125.27 139.44,183.89 164.4,104.97 -46.15,975.28 544.95,1343.51 282.15,175.76 701.47,186.84 1056.7,105.72 349.41,-79.8 639.95,-236.66 789.32,-462.57 142.4,-215.39 183.38,-450.52 278.74,-676.09 16.81,-39.75 35.78,-68.43 49.42,-104.21 16.58,-43.52 21.78,-74.76 45.67,-108.59 84.05,-119 321.35,-151.17 404.47,58.02 185.68,467.3 283.18,940.25 724.2,1164.19 292.42,148.5 660.32,234.09 1035.08,184.46 757.4,-100.3 838.49,-641.76 927.69,-1290.55 6.57,-47.78 11.52,-89.43 18,-137.11 25.88,-190.21 223.5,-13.06 182.61,-273.32 -9.19,-58.55 -12.21,-244.96 -41.56,-277 -14.03,-15.31 -11.54,-11.72 -62.48,-19.05l-472.1 -72.03c-400.69,-55.28 -764.08,-76.08 -1174.78,-22.52 -365.43,47.67 -715.43,133.31 -1076.2,185.65 -770.06,111.74 -1323.64,-296.41 -2234.94,-225.87 -149.7,11.59 -1004.22,113.46 -1103.31,150.69z"/>
  <path class="fil17" d="M6766.06 7176.74c-18.8,-3.99 558,-1383.61 558,-1383.61l73.36 455.88 -535.85 927.73c0,0 -95.87,-3.99 -95.51,0z"/>
  <path class="fil17" d="M13741.94 7173.17c18.81,-3.99 -347.1,-1380.04 -347.1,-1380.04l-73.36 455.88 345.44 971.52c0,0 75.39,-51.35 75.02,-47.36z"/>
  <path class="fil5" d="M13234.12 8101.6c0,0 321.39,351.69 880.97,191.04 559.57,-160.65 784.33,-946.07 406.66,-1231.91 -377.67,-285.84 -1029.47,258.82 -1029.47,258.82l-258.16 782.05z"/>
  <path class="fil6" d="M14300.71 7688.46c-93.07,-341.89 -643.12,-438.7 -740.53,-167.13l-167.3 466.39c593.34,320.49 704.17,-532.44 256.53,-440.56 206.39,-141.14 508.8,-46.73 651.3,141.3z"/>
  <path class="fil18" d="M11645.23 9543.2c790.88,-29.96 1719.25,-133.09 2427.54,-505.58 214.64,-112.88 403.58,-248.05 584.4,-409.05 154.53,-137.62 296.2,-287.85 448.04,-428.06l-64.37 52.48 1277.08 1768.78 -96.97 77.69c-955.33,765.35 -2243.55,1389.12 -3471.22,1557.32l0 4671.93c0,694.69 -1826.37,743.34 -2276.46,743.68 -451.86,0.34 -2277.53,-45.76 -2277.53,-743.68l0 -4487.63c-1163.5,-20.57 -2434.43,-371.89 -3442.12,-926.1 -20.3,-11.19 -39.94,-23.5 -59.11,-36.51l-98.19 -66.56 898.19 -2011.49 42.84 73.25c21.53,10.34 42.86,21 64.09,31.93 185.87,95.91 360.28,212.92 540.4,319.05 202.77,119.49 404.81,218.97 629.2,292.24 786.43,256.85 1743.95,158.56 2545.17,13.1l-11.44 20.18 576.18 1017.65 576.19 1017.59 576.18 -1017.59 576.19 -1017.65 -19.62 -34.65c18.55,8.99 37.02,18.21 55.34,27.68z"/>
  <path class="fil0" d="M5024.2 11177.51c-110.26,-54.6 -218.14,-111.39 -323.17,-170.3 -21.78,-12.24 -42.81,-25.71 -63.29,-39.95l-104.88 -72.85 951.08 -2196.27 153.5 75.08c23.16,11.32 46.1,22.98 68.9,34.95 199.73,104.96 386.09,233.01 579.11,349.17l11.21 6.73 -1272.46 2013.44z"/>
  <path class="fil0" d="M7676.22 11810.87c-750.45,-72.8 -1522.01,-270.26 -2221.11,-560.08 237.71,-154.12 672.34,-205.53 1143.48,-111.37 557.1,111.37 988.87,390.93 1077.63,671.45z"/>
  <path class="fil0" d="M15451.16 10640.17c-622.73,383.45 -1321.21,696.01 -2023.38,880.26 54.28,-288.81 445.03,-620.01 980.66,-802.01 397.33,-134.97 781.43,-156.25 1042.72,-78.25z"/>
  <path class="fil0" d="M11645.23 9543.2c198.44,-7.5 405.57,-19.67 615.68,-39.49l20.83 46.46 -406.78 1955.53 -169.41 144.11 -576.18 490.23 408.86 60.91 19.05 2.84 -839.47 4864.5c-92.9,2.89 -171.65,3.9 -230.17,4.07l0 -5540.8 545.68 -963.74 576.19 -1017.65 -19.62 -34.65c18.55,8.99 37.02,18.21 55.34,27.68zm-1201.89 7529.13c-63.81,-0.22 -148.33,-1.4 -247.02,-4.72l-806.86 -4866.83 35.22 -5.23 376.9 -55.51 -576.19 -490.23 -189.64 -161.34 -386.54 -1858.16c229.3,-26.23 453.69,-61.59 667,-100.32l-11.44 20.18 576.18 1017.65 562.39 993.22 0 5511.29z"/>
  <polygon class="fil19" points="11663.36,11781.55 12217.37,11495.8 12281.74,11781.55 "/>
  <path class="fil0" d="M11575.89 11781.55l863.08 0 0 495.68c0,238.33 -193.21,431.54 -431.54,431.54 -238.33,0 -431.54,-193.21 -431.54,-431.54l0 -495.68z"/>
  <circle class="fil18" cx="4907.09" cy="10778.55" r="149.96"/>
  <path class="fil0" d="M15906.74 10334.52c98.21,-54.6 193.56,-111.38 285.59,-170.29 19.08,-12.24 37.13,-25.72 54.47,-39.96l88.81 -72.84 -1435.78 -2196.28 -136.93 75.09c-20.67,11.32 -41.03,22.98 -61.19,34.94 -176.56,104.96 -334.66,233.02 -502.05,349.17l-9.72 6.74 1716.8 2013.43z"/>
  <circle class="fil18" cx="15971.71" cy="9989.88" r="149.96"/>
  <path class="fil0" d="M7788.46 19172.9c0,0 225.93,-113.84 653.59,82.27 427.66,196.11 475.7,395.25 684.68,395.25 208.99,0 702.28,-216.48 659.89,-363.43 -42.38,-146.95 -1019.58,-1097.14 -1344.57,-1075.95 -324.98,21.2 -373.07,647.95 -420.38,683.73 -47.31,35.78 -233.21,278.13 -233.21,278.13z"/>
  <path class="fil0" d="M13139.31 19172.9c0,0 -225.93,-113.84 -653.59,82.27 -427.67,196.11 -475.7,395.25 -684.68,395.25 -208.99,0 -702.28,-216.48 -659.89,-363.43 42.38,-146.95 1019.58,-1097.14 1344.57,-1075.95 324.98,21.2 373.07,647.95 420.38,683.73 47.3,35.78 233.21,278.13 233.21,278.13z"/>
  <path class="fil20" d="M12464.27 3927.6c-102.54,-136.32 -220.34,-278.1 -344.83,-422.24 -80.02,-92.64 -162.83,-186.27 -246.11,-280.01 -20.24,-22.79 -40.5,-45.56 -60.77,-68.36 -26.84,-30.18 -53.69,-60.37 -80.45,-90.5 -298.7,-336.57 -587.4,-669.03 -763.88,-963.15 -85.09,-141.83 -111.9,-292.77 -100.66,-438.99 9.53,-124.15 46.58,-244.9 98.49,-353.77 -369.84,23.98 -767.85,99.76 -1174.94,200.81 47.62,577.84 222.39,1057.95 490.99,1458.43 59.73,89.05 124.1,174.16 192.71,255.53 0.7,0.82 1.38,1.61 2.05,2.42 293,346.66 663.57,625.37 1083.34,851.61 266.07,143.44 551.92,265.77 850.29,370.94 28.95,10.15 41.57,16.7 43.17,21.09 116.79,-18.08 233.33,-37.25 349.69,-57.48 -29.82,-48.1 -64.39,-101.22 -104.02,-159.55 -64.54,-94.97 -142.48,-203.69 -235.07,-326.78z"/>
  <path class="fil20" d="M9801.32 4079.38c-324.19,-195.15 -605.41,-426.76 -854.48,-708.6 -41.57,-47.05 -82.27,-95.51 -122.1,-145.43 -18.89,-23.69 -37.61,-47.7 -56.13,-72.04 -244.37,-321.19 -456.56,-700.93 -648.9,-1154.92 -382.83,116.14 -749.86,221.96 -1083.95,293.5 88.34,348.68 415.21,733.22 826.79,1091.49 16.98,14.78 34.12,29.51 51.38,44.18 79.35,67.54 161.54,134.05 245.5,199.09 209.37,162.21 429.74,315.31 644.85,452.73 443.63,283.44 864.8,500.21 1120.63,592.6 395.74,0.62 788.35,-14.7 1178.21,-44.1 -501.42,-148.72 -929.9,-324.62 -1301.8,-548.5z"/>
  <path class="fil20" d="M7115.72 3943.26c-560.81,-417.91 -1020.74,-969.3 -1260.41,-1623.09 -241.23,-87.76 -402.54,-270.46 -456,-586.84 -98.8,893.3 420.5,1853.86 1504.73,2516.53 13.8,8.46 27.69,16.84 41.69,25.18 70.86,42.25 144.05,83.23 219.58,122.86 8.51,1.72 17.03,3.4 25.52,5.12 122.66,24.43 244.99,47.08 366.95,67.96 247.01,42.36 492.62,77.55 736.93,106 -195.21,-70.86 -388.23,-155.97 -575.62,-254.41 -109.82,-57.67 -217.7,-119.93 -322.99,-186.6 -87.98,-55.69 -174.16,-114.46 -258.12,-176.21 -7.42,-5.48 -14.84,-10.96 -22.26,-16.5z"/>
  <path class="fil5" d="M7324.06 8101.6c0,0 -321.39,351.69 -880.97,191.04 -559.57,-160.65 -784.33,-946.07 -406.66,-1231.91 377.67,-285.84 1029.46,258.82 1029.46,258.82l258.17 782.05z"/>
  <path class="fil6" d="M6257.47 7688.46c93.07,-341.89 643.12,-438.7 740.53,-167.13l167.29 466.39c-593.33,320.49 -704.16,-532.44 -256.52,-440.56 -206.39,-141.14 -508.8,-46.73 -651.3,141.3z"/>
  <circle class="fil12" transform="matrix(3.07061 1.79202 -1.79202 3.07061 11635.3 6823.83)" r="101.03"/>
  <circle class="fil13" transform="matrix(1.65864 0.967989 -0.967989 1.65864 11635.3 6823.82)" r="101.03"/>
  <circle class="fil11" transform="matrix(0.305085 0.178049 -0.178049 0.305085 9318.81 6935.79)" r="101.03"/>
  <circle class="fil11" transform="matrix(-0.791538 0.461945 0.461945 0.791538 11782.5 6592.99)" r="101.03"/>
  <circle class="fil11" transform="matrix(-0.305085 0.178049 0.178049 0.305085 11572.6 6935.79)" r="101.03"/>
 </g>
</svg>
